<svg width="41" height="41" viewBox="0 0 41 41" fill="none" xmlns="http://www.w3.org/2000/svg">
<rect x="0.5" y="0.470215" width="40" height="40" rx="20" fill="black" fill-opacity="0.39"/>
<path d="M22.4071 17.3891L15.4071 24.2641C15.2318 24.4363 14.9958 24.5328 14.75 24.5328C14.5043 24.5328 14.2683 24.4363 14.093 24.2641L11.093 21.318C11.0051 21.2317 10.9351 21.129 10.887 21.0156C10.8388 20.9023 10.8134 20.7805 10.8123 20.6574C10.81 20.4087 10.9066 20.1693 11.0809 19.9918C11.1672 19.9039 11.2699 19.8339 11.3833 19.7858C11.4966 19.7376 11.6183 19.7122 11.7415 19.7111C11.9902 19.7088 12.2296 19.8054 12.4071 19.9797L14.7508 22.2813L21.0938 16.0516C21.2712 15.8773 21.5105 15.7807 21.7591 15.7829C22.0077 15.7851 22.2453 15.8859 22.4196 16.0633C22.5938 16.2407 22.6905 16.48 22.6883 16.7286C22.6861 16.9772 22.5852 17.2148 22.4079 17.3891H22.4071ZM29.9188 16.0609C29.8325 15.9728 29.7296 15.9025 29.616 15.8542C29.5025 15.8059 29.3806 15.7804 29.2572 15.7793C29.1338 15.7782 29.0114 15.8015 28.897 15.8478C28.7826 15.8942 28.6785 15.9626 28.5907 16.0492L22.25 22.2813L21.6344 21.6766C21.4571 21.5023 21.2177 21.4057 20.9691 21.4079C20.7205 21.4101 20.4829 21.5109 20.3086 21.6883C20.1344 21.8657 20.0377 22.105 20.0399 22.3536C20.0421 22.6022 20.143 22.8398 20.3204 23.0141L21.593 24.2641C21.7683 24.4363 22.0043 24.5328 22.25 24.5328C22.4958 24.5328 22.7318 24.4363 22.9071 24.2641L29.9071 17.3891C29.9949 17.3028 30.0649 17.2001 30.113 17.0867C30.1611 16.9734 30.1864 16.8517 30.1875 16.7286C30.1886 16.6055 30.1654 16.4834 30.1193 16.3692C30.0732 16.2551 30.0051 16.1511 29.9188 16.0633V16.0609Z" fill="white"/>
</svg>
