<svg width="194" height="41" viewBox="0 0 194 41" fill="none" xmlns="http://www.w3.org/2000/svg">
<g clip-path="url(#clip0_1_2177)">
<path d="M191.5 0.470215C192.605 0.470215 193.5 1.36521 193.5 2.47021C193.5 3.57521 192.605 4.47021 191.5 4.47021C190.395 4.47021 189.5 3.57521 189.5 2.47021C189.5 1.36521 190.395 0.470215 191.5 0.470215Z" fill="#29FFFF"/>
<path d="M181.553 0.470215C182.658 0.470215 183.553 1.36521 183.553 2.47021C183.553 3.57521 182.658 4.47021 181.553 4.47021C180.448 4.47021 179.553 3.57521 179.553 2.47021C179.553 1.36521 180.448 0.470215 181.553 0.470215Z" fill="#29FFFF"/>
<path d="M171.605 0.470215C172.71 0.470215 173.605 1.36521 173.605 2.47021C173.605 3.57521 172.71 4.47021 171.605 4.47021C170.5 4.47021 169.605 3.57521 169.605 2.47021C169.605 1.36521 170.5 0.470215 171.605 0.470215Z" fill="#29FFFF"/>
<path d="M161.658 0.470215C162.763 0.470215 163.658 1.36521 163.658 2.47021C163.658 3.57521 162.763 4.47021 161.658 4.47021C160.553 4.47021 159.658 3.57521 159.658 2.47021C159.658 1.36521 160.553 0.470215 161.658 0.470215Z" fill="#29FFFF"/>
<path d="M151.71 0.470215C152.815 0.470215 153.71 1.36521 153.71 2.47021C153.71 3.57521 152.815 4.47021 151.71 4.47021C150.605 4.47021 149.71 3.57521 149.71 2.47021C149.71 1.36521 150.605 0.470215 151.71 0.470215Z" fill="#29FFFF"/>
<path d="M141.763 0.470215C142.868 0.470215 143.763 1.36521 143.763 2.47021C143.763 3.57521 142.868 4.47021 141.763 4.47021C140.658 4.47021 139.763 3.57521 139.763 2.47021C139.763 1.36521 140.658 0.470215 141.763 0.470215Z" fill="#29FFFF"/>
<path d="M131.816 0.470215C132.921 0.470215 133.816 1.36521 133.816 2.47021C133.816 3.57521 132.921 4.47021 131.816 4.47021C130.711 4.47021 129.816 3.57521 129.816 2.47021C129.816 1.36521 130.711 0.470215 131.816 0.470215Z" fill="#29FFFF"/>
<path d="M121.868 0.470215C122.973 0.470215 123.868 1.36521 123.868 2.47021C123.868 3.57521 122.973 4.47021 121.868 4.47021C120.763 4.47021 119.868 3.57521 119.868 2.47021C119.868 1.36521 120.763 0.470215 121.868 0.470215Z" fill="#29FFFF"/>
<path d="M111.921 0.470215C113.026 0.470215 113.921 1.36521 113.921 2.47021C113.921 3.57521 113.026 4.47021 111.921 4.47021C110.816 4.47021 109.921 3.57521 109.921 2.47021C109.921 1.36521 110.816 0.470215 111.921 0.470215Z" fill="#29FFFF"/>
<path d="M101.974 0.470215C103.079 0.470215 103.974 1.36521 103.974 2.47021C103.974 3.57521 103.079 4.47021 101.974 4.47021C100.869 4.47021 99.974 3.57521 99.974 2.47021C99.974 1.36521 100.869 0.470215 101.974 0.470215Z" fill="#29FFFF"/>
<path d="M92.026 0.470215C93.131 0.470215 94.026 1.36521 94.026 2.47021C94.026 3.57521 93.131 4.47021 92.026 4.47021C90.921 4.47021 90.026 3.57521 90.026 2.47021C90.026 1.36521 90.921 0.470215 92.026 0.470215Z" fill="#29FFFF"/>
<path d="M82.079 0.470215C83.184 0.470215 84.079 1.36521 84.079 2.47021C84.079 3.57521 83.184 4.47021 82.079 4.47021C80.974 4.47021 80.079 3.57521 80.079 2.47021C80.079 1.36521 80.974 0.470215 82.079 0.470215Z" fill="#29FFFF"/>
<path d="M72.132 0.470215C73.237 0.470215 74.132 1.36521 74.132 2.47021C74.132 3.57521 73.237 4.47021 72.132 4.47021C71.027 4.47021 70.132 3.57521 70.132 2.47021C70.132 1.36521 71.027 0.470215 72.132 0.470215Z" fill="#29FFFF"/>
<path d="M62.184 0.470215C63.289 0.470215 64.184 1.36521 64.184 2.47021C64.184 3.57521 63.289 4.47021 62.184 4.47021C61.079 4.47021 60.184 3.57521 60.184 2.47021C60.184 1.36521 61.079 0.470215 62.184 0.470215Z" fill="#29FFFF"/>
<path d="M52.2371 0.470215C53.3421 0.470215 54.2371 1.36521 54.2371 2.47021C54.2371 3.57521 53.3421 4.47021 52.2371 4.47021C51.1321 4.47021 50.2371 3.57521 50.2371 2.47021C50.2371 1.36521 51.1321 0.470215 52.2371 0.470215Z" fill="#29FFFF"/>
<path d="M42.29 0.470215C43.395 0.470215 44.29 1.36521 44.29 2.47021C44.29 3.57521 43.395 4.47021 42.29 4.47021C41.185 4.47021 40.29 3.57521 40.29 2.47021C40.29 1.36521 41.185 0.470215 42.29 0.470215Z" fill="#29FFFF"/>
<path d="M32.342 0.470215C33.447 0.470215 34.342 1.36521 34.342 2.47021C34.342 3.57521 33.447 4.47021 32.342 4.47021C31.237 4.47021 30.342 3.57521 30.342 2.47021C30.342 1.36521 31.237 0.470215 32.342 0.470215Z" fill="#29FFFF"/>
<path d="M22.395 0.470215C23.5 0.470215 24.395 1.36521 24.395 2.47021C24.395 3.57521 23.5 4.47021 22.395 4.47021C21.29 4.47021 20.395 3.57521 20.395 2.47021C20.395 1.36521 21.29 0.470215 22.395 0.470215Z" fill="#29FFFF"/>
<path d="M12.447 0.470215C13.552 0.470215 14.447 1.36521 14.447 2.47021C14.447 3.57521 13.552 4.47021 12.447 4.47021C11.342 4.47021 10.447 3.57521 10.447 2.47021C10.447 1.36521 11.342 0.470215 12.447 0.470215Z" fill="#29FFFF"/>
<path d="M2.5 0.470215C3.605 0.470215 4.5 1.36521 4.5 2.47021C4.5 3.57521 3.605 4.47021 2.5 4.47021C1.395 4.47021 0.5 3.57521 0.5 2.47021C0.5 1.36521 1.395 0.470215 2.5 0.470215Z" fill="#29FFFF"/>
<path d="M191.5 9.47021C192.605 9.47021 193.5 10.3652 193.5 11.4702C193.5 12.5752 192.605 13.4702 191.5 13.4702C190.395 13.4702 189.5 12.5752 189.5 11.4702C189.5 10.3652 190.395 9.47021 191.5 9.47021Z" fill="#29FFFF"/>
<path d="M181.553 9.47021C182.658 9.47021 183.553 10.3652 183.553 11.4702C183.553 12.5752 182.658 13.4702 181.553 13.4702C180.448 13.4702 179.553 12.5752 179.553 11.4702C179.553 10.3652 180.448 9.47021 181.553 9.47021Z" fill="#29FFFF"/>
<path d="M171.605 9.47021C172.71 9.47021 173.605 10.3652 173.605 11.4702C173.605 12.5752 172.71 13.4702 171.605 13.4702C170.5 13.4702 169.605 12.5752 169.605 11.4702C169.605 10.3652 170.5 9.47021 171.605 9.47021Z" fill="#29FFFF"/>
<path d="M161.658 9.47021C162.763 9.47021 163.658 10.3652 163.658 11.4702C163.658 12.5752 162.763 13.4702 161.658 13.4702C160.553 13.4702 159.658 12.5752 159.658 11.4702C159.658 10.3652 160.553 9.47021 161.658 9.47021Z" fill="#29FFFF"/>
<path d="M151.71 9.47021C152.815 9.47021 153.71 10.3652 153.71 11.4702C153.71 12.5752 152.815 13.4702 151.71 13.4702C150.605 13.4702 149.71 12.5752 149.71 11.4702C149.71 10.3652 150.605 9.47021 151.71 9.47021Z" fill="#29FFFF"/>
<path d="M141.763 9.47021C142.868 9.47021 143.763 10.3652 143.763 11.4702C143.763 12.5752 142.868 13.4702 141.763 13.4702C140.658 13.4702 139.763 12.5752 139.763 11.4702C139.763 10.3652 140.658 9.47021 141.763 9.47021Z" fill="#29FFFF"/>
<path d="M131.816 9.47021C132.921 9.47021 133.816 10.3652 133.816 11.4702C133.816 12.5752 132.921 13.4702 131.816 13.4702C130.711 13.4702 129.816 12.5752 129.816 11.4702C129.816 10.3652 130.711 9.47021 131.816 9.47021Z" fill="#29FFFF"/>
<path d="M121.868 9.47021C122.973 9.47021 123.868 10.3652 123.868 11.4702C123.868 12.5752 122.973 13.4702 121.868 13.4702C120.763 13.4702 119.868 12.5752 119.868 11.4702C119.868 10.3652 120.763 9.47021 121.868 9.47021Z" fill="#29FFFF"/>
<path d="M111.921 9.47021C113.026 9.47021 113.921 10.3652 113.921 11.4702C113.921 12.5752 113.026 13.4702 111.921 13.4702C110.816 13.4702 109.921 12.5752 109.921 11.4702C109.921 10.3652 110.816 9.47021 111.921 9.47021Z" fill="#29FFFF"/>
<path d="M101.974 9.47021C103.079 9.47021 103.974 10.3652 103.974 11.4702C103.974 12.5752 103.079 13.4702 101.974 13.4702C100.869 13.4702 99.974 12.5752 99.974 11.4702C99.974 10.3652 100.869 9.47021 101.974 9.47021Z" fill="#29FFFF"/>
<path d="M92.026 9.47021C93.131 9.47021 94.026 10.3652 94.026 11.4702C94.026 12.5752 93.131 13.4702 92.026 13.4702C90.921 13.4702 90.026 12.5752 90.026 11.4702C90.026 10.3652 90.921 9.47021 92.026 9.47021Z" fill="#29FFFF"/>
<path d="M82.079 9.47021C83.184 9.47021 84.079 10.3652 84.079 11.4702C84.079 12.5752 83.184 13.4702 82.079 13.4702C80.974 13.4702 80.079 12.5752 80.079 11.4702C80.079 10.3652 80.974 9.47021 82.079 9.47021Z" fill="#29FFFF"/>
<path d="M72.132 9.47021C73.237 9.47021 74.132 10.3652 74.132 11.4702C74.132 12.5752 73.237 13.4702 72.132 13.4702C71.027 13.4702 70.132 12.5752 70.132 11.4702C70.132 10.3652 71.027 9.47021 72.132 9.47021Z" fill="#29FFFF"/>
<path d="M62.184 9.47021C63.289 9.47021 64.184 10.3652 64.184 11.4702C64.184 12.5752 63.289 13.4702 62.184 13.4702C61.079 13.4702 60.184 12.5752 60.184 11.4702C60.184 10.3652 61.079 9.47021 62.184 9.47021Z" fill="#29FFFF"/>
<path d="M52.2371 9.47021C53.3421 9.47021 54.2371 10.3652 54.2371 11.4702C54.2371 12.5752 53.3421 13.4702 52.2371 13.4702C51.1321 13.4702 50.2371 12.5752 50.2371 11.4702C50.2371 10.3652 51.1321 9.47021 52.2371 9.47021Z" fill="#29FFFF"/>
<path d="M42.29 9.47021C43.395 9.47021 44.29 10.3652 44.29 11.4702C44.29 12.5752 43.395 13.4702 42.29 13.4702C41.185 13.4702 40.29 12.5752 40.29 11.4702C40.29 10.3652 41.185 9.47021 42.29 9.47021Z" fill="#29FFFF"/>
<path d="M32.342 9.47021C33.447 9.47021 34.342 10.3652 34.342 11.4702C34.342 12.5752 33.447 13.4702 32.342 13.4702C31.237 13.4702 30.342 12.5752 30.342 11.4702C30.342 10.3652 31.237 9.47021 32.342 9.47021Z" fill="#29FFFF"/>
<path d="M22.395 9.47021C23.5 9.47021 24.395 10.3652 24.395 11.4702C24.395 12.5752 23.5 13.4702 22.395 13.4702C21.29 13.4702 20.395 12.5752 20.395 11.4702C20.395 10.3652 21.29 9.47021 22.395 9.47021Z" fill="#29FFFF"/>
<path d="M12.447 9.47021C13.552 9.47021 14.447 10.3652 14.447 11.4702C14.447 12.5752 13.552 13.4702 12.447 13.4702C11.342 13.4702 10.447 12.5752 10.447 11.4702C10.447 10.3652 11.342 9.47021 12.447 9.47021Z" fill="#29FFFF"/>
<path d="M2.5 9.47021C3.605 9.47021 4.5 10.3652 4.5 11.4702C4.5 12.5752 3.605 13.4702 2.5 13.4702C1.395 13.4702 0.5 12.5752 0.5 11.4702C0.5 10.3652 1.395 9.47021 2.5 9.47021Z" fill="#29FFFF"/>
<path d="M191.5 18.4702C192.605 18.4702 193.5 19.3652 193.5 20.4702C193.5 21.5752 192.605 22.4702 191.5 22.4702C190.395 22.4702 189.5 21.5752 189.5 20.4702C189.5 19.3652 190.395 18.4702 191.5 18.4702Z" fill="#29FFFF"/>
<path d="M181.553 18.4702C182.658 18.4702 183.553 19.3652 183.553 20.4702C183.553 21.5752 182.658 22.4702 181.553 22.4702C180.448 22.4702 179.553 21.5752 179.553 20.4702C179.553 19.3652 180.448 18.4702 181.553 18.4702Z" fill="#29FFFF"/>
<path d="M171.605 18.4702C172.71 18.4702 173.605 19.3652 173.605 20.4702C173.605 21.5752 172.71 22.4702 171.605 22.4702C170.5 22.4702 169.605 21.5752 169.605 20.4702C169.605 19.3652 170.5 18.4702 171.605 18.4702Z" fill="#29FFFF"/>
<path d="M161.658 18.4702C162.763 18.4702 163.658 19.3652 163.658 20.4702C163.658 21.5752 162.763 22.4702 161.658 22.4702C160.553 22.4702 159.658 21.5752 159.658 20.4702C159.658 19.3652 160.553 18.4702 161.658 18.4702Z" fill="#29FFFF"/>
<path d="M151.71 18.4702C152.815 18.4702 153.71 19.3652 153.71 20.4702C153.71 21.5752 152.815 22.4702 151.71 22.4702C150.605 22.4702 149.71 21.5752 149.71 20.4702C149.71 19.3652 150.605 18.4702 151.71 18.4702Z" fill="#29FFFF"/>
<path d="M141.763 18.4702C142.868 18.4702 143.763 19.3652 143.763 20.4702C143.763 21.5752 142.868 22.4702 141.763 22.4702C140.658 22.4702 139.763 21.5752 139.763 20.4702C139.763 19.3652 140.658 18.4702 141.763 18.4702Z" fill="#29FFFF"/>
<path d="M131.816 18.4702C132.921 18.4702 133.816 19.3652 133.816 20.4702C133.816 21.5752 132.921 22.4702 131.816 22.4702C130.711 22.4702 129.816 21.5752 129.816 20.4702C129.816 19.3652 130.711 18.4702 131.816 18.4702Z" fill="#29FFFF"/>
<path d="M121.868 18.4702C122.973 18.4702 123.868 19.3652 123.868 20.4702C123.868 21.5752 122.973 22.4702 121.868 22.4702C120.763 22.4702 119.868 21.5752 119.868 20.4702C119.868 19.3652 120.763 18.4702 121.868 18.4702Z" fill="#29FFFF"/>
<path d="M111.921 18.4702C113.026 18.4702 113.921 19.3652 113.921 20.4702C113.921 21.5752 113.026 22.4702 111.921 22.4702C110.816 22.4702 109.921 21.5752 109.921 20.4702C109.921 19.3652 110.816 18.4702 111.921 18.4702Z" fill="#29FFFF"/>
<path d="M101.974 18.4702C103.079 18.4702 103.974 19.3652 103.974 20.4702C103.974 21.5752 103.079 22.4702 101.974 22.4702C100.869 22.4702 99.974 21.5752 99.974 20.4702C99.974 19.3652 100.869 18.4702 101.974 18.4702Z" fill="#29FFFF"/>
<path d="M92.026 18.4702C93.131 18.4702 94.026 19.3652 94.026 20.4702C94.026 21.5752 93.131 22.4702 92.026 22.4702C90.921 22.4702 90.026 21.5752 90.026 20.4702C90.026 19.3652 90.921 18.4702 92.026 18.4702Z" fill="#29FFFF"/>
<path d="M82.079 18.4702C83.184 18.4702 84.079 19.3652 84.079 20.4702C84.079 21.5752 83.184 22.4702 82.079 22.4702C80.974 22.4702 80.079 21.5752 80.079 20.4702C80.079 19.3652 80.974 18.4702 82.079 18.4702Z" fill="#29FFFF"/>
<path d="M72.132 18.4702C73.237 18.4702 74.132 19.3652 74.132 20.4702C74.132 21.5752 73.237 22.4702 72.132 22.4702C71.027 22.4702 70.132 21.5752 70.132 20.4702C70.132 19.3652 71.027 18.4702 72.132 18.4702Z" fill="#29FFFF"/>
<path d="M62.184 18.4702C63.289 18.4702 64.184 19.3652 64.184 20.4702C64.184 21.5752 63.289 22.4702 62.184 22.4702C61.079 22.4702 60.184 21.5752 60.184 20.4702C60.184 19.3652 61.079 18.4702 62.184 18.4702Z" fill="#29FFFF"/>
<path d="M52.2371 18.4702C53.3421 18.4702 54.2371 19.3652 54.2371 20.4702C54.2371 21.5752 53.3421 22.4702 52.2371 22.4702C51.1321 22.4702 50.2371 21.5752 50.2371 20.4702C50.2371 19.3652 51.1321 18.4702 52.2371 18.4702Z" fill="#29FFFF"/>
<path d="M42.29 18.4702C43.395 18.4702 44.29 19.3652 44.29 20.4702C44.29 21.5752 43.395 22.4702 42.29 22.4702C41.185 22.4702 40.29 21.5752 40.29 20.4702C40.29 19.3652 41.185 18.4702 42.29 18.4702Z" fill="#29FFFF"/>
<path d="M32.342 18.4702C33.447 18.4702 34.342 19.3652 34.342 20.4702C34.342 21.5752 33.447 22.4702 32.342 22.4702C31.237 22.4702 30.342 21.5752 30.342 20.4702C30.342 19.3652 31.237 18.4702 32.342 18.4702Z" fill="#29FFFF"/>
<path d="M22.395 18.4702C23.5 18.4702 24.395 19.3652 24.395 20.4702C24.395 21.5752 23.5 22.4702 22.395 22.4702C21.29 22.4702 20.395 21.5752 20.395 20.4702C20.395 19.3652 21.29 18.4702 22.395 18.4702Z" fill="#29FFFF"/>
<path d="M12.447 18.4702C13.552 18.4702 14.447 19.3652 14.447 20.4702C14.447 21.5752 13.552 22.4702 12.447 22.4702C11.342 22.4702 10.447 21.5752 10.447 20.4702C10.447 19.3652 11.342 18.4702 12.447 18.4702Z" fill="#29FFFF"/>
<path d="M2.5 18.4702C3.605 18.4702 4.5 19.3652 4.5 20.4702C4.5 21.5752 3.605 22.4702 2.5 22.4702C1.395 22.4702 0.5 21.5752 0.5 20.4702C0.5 19.3652 1.395 18.4702 2.5 18.4702Z" fill="#29FFFF"/>
<path d="M191.5 27.4702C192.605 27.4702 193.5 28.3652 193.5 29.4702C193.5 30.5752 192.605 31.4702 191.5 31.4702C190.395 31.4702 189.5 30.5752 189.5 29.4702C189.5 28.3652 190.395 27.4702 191.5 27.4702Z" fill="#29FFFF"/>
<path d="M181.553 27.4702C182.658 27.4702 183.553 28.3652 183.553 29.4702C183.553 30.5752 182.658 31.4702 181.553 31.4702C180.448 31.4702 179.553 30.5752 179.553 29.4702C179.553 28.3652 180.448 27.4702 181.553 27.4702Z" fill="#29FFFF"/>
<path d="M171.605 27.4702C172.71 27.4702 173.605 28.3652 173.605 29.4702C173.605 30.5752 172.71 31.4702 171.605 31.4702C170.5 31.4702 169.605 30.5752 169.605 29.4702C169.605 28.3652 170.5 27.4702 171.605 27.4702Z" fill="#29FFFF"/>
<path d="M161.658 27.4702C162.763 27.4702 163.658 28.3652 163.658 29.4702C163.658 30.5752 162.763 31.4702 161.658 31.4702C160.553 31.4702 159.658 30.5752 159.658 29.4702C159.658 28.3652 160.553 27.4702 161.658 27.4702Z" fill="#29FFFF"/>
<path d="M151.71 27.4702C152.815 27.4702 153.71 28.3652 153.71 29.4702C153.71 30.5752 152.815 31.4702 151.71 31.4702C150.605 31.4702 149.71 30.5752 149.71 29.4702C149.71 28.3652 150.605 27.4702 151.71 27.4702Z" fill="#29FFFF"/>
<path d="M141.763 27.4702C142.868 27.4702 143.763 28.3652 143.763 29.4702C143.763 30.5752 142.868 31.4702 141.763 31.4702C140.658 31.4702 139.763 30.5752 139.763 29.4702C139.763 28.3652 140.658 27.4702 141.763 27.4702Z" fill="#29FFFF"/>
<path d="M131.816 27.4702C132.921 27.4702 133.816 28.3652 133.816 29.4702C133.816 30.5752 132.921 31.4702 131.816 31.4702C130.711 31.4702 129.816 30.5752 129.816 29.4702C129.816 28.3652 130.711 27.4702 131.816 27.4702Z" fill="#29FFFF"/>
<path d="M121.868 27.4702C122.973 27.4702 123.868 28.3652 123.868 29.4702C123.868 30.5752 122.973 31.4702 121.868 31.4702C120.763 31.4702 119.868 30.5752 119.868 29.4702C119.868 28.3652 120.763 27.4702 121.868 27.4702Z" fill="#29FFFF"/>
<path d="M111.921 27.4702C113.026 27.4702 113.921 28.3652 113.921 29.4702C113.921 30.5752 113.026 31.4702 111.921 31.4702C110.816 31.4702 109.921 30.5752 109.921 29.4702C109.921 28.3652 110.816 27.4702 111.921 27.4702Z" fill="#29FFFF"/>
<path d="M101.974 27.4702C103.079 27.4702 103.974 28.3652 103.974 29.4702C103.974 30.5752 103.079 31.4702 101.974 31.4702C100.869 31.4702 99.974 30.5752 99.974 29.4702C99.974 28.3652 100.869 27.4702 101.974 27.4702Z" fill="#29FFFF"/>
<path d="M92.026 27.4702C93.131 27.4702 94.026 28.3652 94.026 29.4702C94.026 30.5752 93.131 31.4702 92.026 31.4702C90.921 31.4702 90.026 30.5752 90.026 29.4702C90.026 28.3652 90.921 27.4702 92.026 27.4702Z" fill="#29FFFF"/>
<path d="M82.079 27.4702C83.184 27.4702 84.079 28.3652 84.079 29.4702C84.079 30.5752 83.184 31.4702 82.079 31.4702C80.974 31.4702 80.079 30.5752 80.079 29.4702C80.079 28.3652 80.974 27.4702 82.079 27.4702Z" fill="#29FFFF"/>
<path d="M72.132 27.4702C73.237 27.4702 74.132 28.3652 74.132 29.4702C74.132 30.5752 73.237 31.4702 72.132 31.4702C71.027 31.4702 70.132 30.5752 70.132 29.4702C70.132 28.3652 71.027 27.4702 72.132 27.4702Z" fill="#29FFFF"/>
<path d="M62.184 27.4702C63.289 27.4702 64.184 28.3652 64.184 29.4702C64.184 30.5752 63.289 31.4702 62.184 31.4702C61.079 31.4702 60.184 30.5752 60.184 29.4702C60.184 28.3652 61.079 27.4702 62.184 27.4702Z" fill="#29FFFF"/>
<path d="M52.2371 27.4702C53.3421 27.4702 54.2371 28.3652 54.2371 29.4702C54.2371 30.5752 53.3421 31.4702 52.2371 31.4702C51.1321 31.4702 50.2371 30.5752 50.2371 29.4702C50.2371 28.3652 51.1321 27.4702 52.2371 27.4702Z" fill="#29FFFF"/>
<path d="M42.29 27.4702C43.395 27.4702 44.29 28.3652 44.29 29.4702C44.29 30.5752 43.395 31.4702 42.29 31.4702C41.185 31.4702 40.29 30.5752 40.29 29.4702C40.29 28.3652 41.185 27.4702 42.29 27.4702Z" fill="#29FFFF"/>
<path d="M32.342 27.4702C33.447 27.4702 34.342 28.3652 34.342 29.4702C34.342 30.5752 33.447 31.4702 32.342 31.4702C31.237 31.4702 30.342 30.5752 30.342 29.4702C30.342 28.3652 31.237 27.4702 32.342 27.4702Z" fill="#29FFFF"/>
<path d="M22.395 27.4702C23.5 27.4702 24.395 28.3652 24.395 29.4702C24.395 30.5752 23.5 31.4702 22.395 31.4702C21.29 31.4702 20.395 30.5752 20.395 29.4702C20.395 28.3652 21.29 27.4702 22.395 27.4702Z" fill="#29FFFF"/>
<path d="M12.447 27.4702C13.552 27.4702 14.447 28.3652 14.447 29.4702C14.447 30.5752 13.552 31.4702 12.447 31.4702C11.342 31.4702 10.447 30.5752 10.447 29.4702C10.447 28.3652 11.342 27.4702 12.447 27.4702Z" fill="#29FFFF"/>
<path d="M2.5 27.4702C3.605 27.4702 4.5 28.3652 4.5 29.4702C4.5 30.5752 3.605 31.4702 2.5 31.4702C1.395 31.4702 0.5 30.5752 0.5 29.4702C0.5 28.3652 1.395 27.4702 2.5 27.4702Z" fill="#29FFFF"/>
<path d="M141.763 36.4702C142.868 36.4702 143.763 37.3652 143.763 38.4702C143.763 39.5752 142.868 40.4702 141.763 40.4702C140.658 40.4702 139.763 39.5752 139.763 38.4702C139.763 37.3652 140.658 36.4702 141.763 36.4702Z" fill="#29FFFF"/>
<path d="M131.816 36.4702C132.921 36.4702 133.816 37.3652 133.816 38.4702C133.816 39.5752 132.921 40.4702 131.816 40.4702C130.711 40.4702 129.816 39.5752 129.816 38.4702C129.816 37.3652 130.711 36.4702 131.816 36.4702Z" fill="#29FFFF"/>
<path d="M121.868 36.4702C122.973 36.4702 123.868 37.3652 123.868 38.4702C123.868 39.5752 122.973 40.4702 121.868 40.4702C120.763 40.4702 119.868 39.5752 119.868 38.4702C119.868 37.3652 120.763 36.4702 121.868 36.4702Z" fill="#29FFFF"/>
<path d="M111.921 36.4702C113.026 36.4702 113.921 37.3652 113.921 38.4702C113.921 39.5752 113.026 40.4702 111.921 40.4702C110.816 40.4702 109.921 39.5752 109.921 38.4702C109.921 37.3652 110.816 36.4702 111.921 36.4702Z" fill="#29FFFF"/>
<path d="M101.974 36.4702C103.079 36.4702 103.974 37.3652 103.974 38.4702C103.974 39.5752 103.079 40.4702 101.974 40.4702C100.869 40.4702 99.974 39.5752 99.974 38.4702C99.974 37.3652 100.869 36.4702 101.974 36.4702Z" fill="#29FFFF"/>
<path d="M92.026 36.4702C93.131 36.4702 94.026 37.3652 94.026 38.4702C94.026 39.5752 93.131 40.4702 92.026 40.4702C90.921 40.4702 90.026 39.5752 90.026 38.4702C90.026 37.3652 90.921 36.4702 92.026 36.4702Z" fill="#29FFFF"/>
<path d="M82.079 36.4702C83.184 36.4702 84.079 37.3652 84.079 38.4702C84.079 39.5752 83.184 40.4702 82.079 40.4702C80.974 40.4702 80.079 39.5752 80.079 38.4702C80.079 37.3652 80.974 36.4702 82.079 36.4702Z" fill="#29FFFF"/>
<path d="M72.132 36.4702C73.237 36.4702 74.132 37.3652 74.132 38.4702C74.132 39.5752 73.237 40.4702 72.132 40.4702C71.027 40.4702 70.132 39.5752 70.132 38.4702C70.132 37.3652 71.027 36.4702 72.132 36.4702Z" fill="#29FFFF"/>
<path d="M62.184 36.4702C63.289 36.4702 64.184 37.3652 64.184 38.4702C64.184 39.5752 63.289 40.4702 62.184 40.4702C61.079 40.4702 60.184 39.5752 60.184 38.4702C60.184 37.3652 61.079 36.4702 62.184 36.4702Z" fill="#29FFFF"/>
<path d="M52.2371 36.4702C53.3421 36.4702 54.2371 37.3652 54.2371 38.4702C54.2371 39.5752 53.3421 40.4702 52.2371 40.4702C51.1321 40.4702 50.2371 39.5752 50.2371 38.4702C50.2371 37.3652 51.1321 36.4702 52.2371 36.4702Z" fill="#29FFFF"/>
<path d="M42.29 36.4702C43.395 36.4702 44.29 37.3652 44.29 38.4702C44.29 39.5752 43.395 40.4702 42.29 40.4702C41.185 40.4702 40.29 39.5752 40.29 38.4702C40.29 37.3652 41.185 36.4702 42.29 36.4702Z" fill="#29FFFF"/>
<path d="M32.342 36.4702C33.447 36.4702 34.342 37.3652 34.342 38.4702C34.342 39.5752 33.447 40.4702 32.342 40.4702C31.237 40.4702 30.342 39.5752 30.342 38.4702C30.342 37.3652 31.237 36.4702 32.342 36.4702Z" fill="#29FFFF"/>
<path d="M22.395 36.4702C23.5 36.4702 24.395 37.3652 24.395 38.4702C24.395 39.5752 23.5 40.4702 22.395 40.4702C21.29 40.4702 20.395 39.5752 20.395 38.4702C20.395 37.3652 21.29 36.4702 22.395 36.4702Z" fill="#29FFFF"/>
<path d="M12.447 36.4702C13.552 36.4702 14.447 37.3652 14.447 38.4702C14.447 39.5752 13.552 40.4702 12.447 40.4702C11.342 40.4702 10.447 39.5752 10.447 38.4702C10.447 37.3652 11.342 36.4702 12.447 36.4702Z" fill="#29FFFF"/>
<path d="M2.5 36.4702C3.605 36.4702 4.5 37.3652 4.5 38.4702C4.5 39.5752 3.605 40.4702 2.5 40.4702C1.395 40.4702 0.5 39.5752 0.5 38.4702C0.5 37.3652 1.395 36.4702 2.5 36.4702Z" fill="#29FFFF"/>
<path d="M191.5 36.4702C192.605 36.4702 193.5 37.3652 193.5 38.4702C193.5 39.5752 192.605 40.4702 191.5 40.4702C190.395 40.4702 189.5 39.5752 189.5 38.4702C189.5 37.3652 190.395 36.4702 191.5 36.4702Z" fill="white" fill-opacity="0.25"/>
<path d="M181.553 36.4702C182.658 36.4702 183.553 37.3652 183.553 38.4702C183.553 39.5752 182.658 40.4702 181.553 40.4702C180.448 40.4702 179.553 39.5752 179.553 38.4702C179.553 37.3652 180.448 36.4702 181.553 36.4702Z" fill="white" fill-opacity="0.25"/>
<path d="M171.605 36.4702C172.71 36.4702 173.605 37.3652 173.605 38.4702C173.605 39.5752 172.71 40.4702 171.605 40.4702C170.5 40.4702 169.605 39.5752 169.605 38.4702C169.605 37.3652 170.5 36.4702 171.605 36.4702Z" fill="white" fill-opacity="0.25"/>
<path d="M161.658 36.4702C162.763 36.4702 163.658 37.3652 163.658 38.4702C163.658 39.5752 162.763 40.4702 161.658 40.4702C160.553 40.4702 159.658 39.5752 159.658 38.4702C159.658 37.3652 160.553 36.4702 161.658 36.4702Z" fill="white" fill-opacity="0.25"/>
<path d="M151.71 36.4702C152.815 36.4702 153.71 37.3652 153.71 38.4702C153.71 39.5752 152.815 40.4702 151.71 40.4702C150.605 40.4702 149.71 39.5752 149.71 38.4702C149.71 37.3652 150.605 36.4702 151.71 36.4702Z" fill="white" fill-opacity="0.25"/>
</g>
<defs>
<clipPath id="clip0_1_2177">
<rect width="193" height="40" fill="white" transform="translate(0.5 0.470215)"/>
</clipPath>
</defs>
</svg>
